<svg xmlns="http://www.w3.org/2000/svg" width="123" height="158" viewBox="0 0 123 158">
    <defs>
        <linearGradient id="uzo6te5kia" x1=".166" y1=".914" x2=".638" y2=".415" gradientUnits="objectBoundingBox">
            <stop offset=".094" stop-color="#278034"/>
            <stop offset=".863" stop-color="#16401d"/>
        </linearGradient>
        <linearGradient id="mt96fz9lwb" y1=".5" x2="1" y2=".5" gradientUnits="objectBoundingBox">
            <stop offset=".206" stop-color="#4aa7c0"/>
            <stop offset=".863" stop-color="#006f9a"/>
        </linearGradient>
        <linearGradient id="0saxo3711c" y1=".5" x2="1" y2=".5" gradientUnits="objectBoundingBox">
            <stop offset=".017" stop-color="#006f9a"/>
            <stop offset=".678" stop-color="#4aa7c0"/>
        </linearGradient>
    </defs>
    <g data-name="Group 1981">
        <path data-name="Rectangle 2425" style="fill:#f3f3f3" d="M0 0h123v158H0z"/>
        <g data-name="Group 1980">
            <g data-name="Group 1979">
                <g data-name="Group 1975">
                    <path data-name="Path 21839" d="m643.652 415.562-4.012-3.226V396.01l4.012 3.224v16.328z" transform="translate(-538.111 -327.452)" style="fill-rule:evenodd;fill:#164b23"/>
                    <path data-name="Path 21840" d="m597.2 328.543-4.012-3.225v-16.327l4.012 3.226v16.326z" transform="translate(-499.688 -255.5)" style="fill:#072d2c;fill-rule:evenodd"/>
                    <path data-name="Path 21841" d="m156.382 415.562 4.013-3.226V396.01l-4.013 3.224v16.328z" transform="translate(-138.344 -327.452)" style="fill-rule:evenodd;fill:#164b23"/>
                    <path data-name="Path 21842" d="m202.831 328.543 4.013-3.225v-16.327l-4.013 3.226v16.326z" transform="translate(-176.769 -255.5)" style="fill:#072d2c;fill-rule:evenodd"/>
                    <path data-name="Path 21843" d="m454.643 157.932-24.086-20.656V120.95l24.086 20.656v16.327z" transform="translate(-365.152 -100.053)" style="fill:#a5976c;fill-rule:evenodd"/>
                    <path data-name="Path 21844" d="m249.28 157.932 23.348-20.656V120.95l-23.348 20.655v16.327z" transform="translate(-215.193 -100.053)" style="fill:#a5976c;fill-rule:evenodd"/>
                    <path data-name="Path 21845" d="m98.746 90.816 25.7 20.7V143.2l-37.737-30.42V67.994L142.5 23.011l55.789 44.983v44.786l-37.735 30.42v-31.69l25.7-20.7v16.361l-21.683 17.466v10.143l29.691-23.94V69.928L142.5 28.195 90.738 69.928v40.919l29.691 23.94v-10.144l-21.683-17.466V90.816z" transform="translate(-80.709 -19.035)" style="fill:url(#uzo6te5kia);fill-rule:evenodd"/>
                    <path data-name="Path 21846" d="m467.683 401.433 4.013-3.228V361.42l21.683-17.43v-16.326l-25.7 20.655v53.115z" transform="translate(-395.863 -270.808)" style="fill:url(#mt96fz9lwb);fill-rule:evenodd"/>
                    <path data-name="Path 21847" d="m228.526 401.433-4.012-3.228V361.42l-21.683-17.43v-16.326l25.7 20.655v53.115z" transform="translate(-176.769 -270.808)" style="fill:url(#0saxo3711c);fill-rule:evenodd"/>
                    <path data-name="Path 21848" d="M274.976 261.162v74.63l-4.013-3.228v-58.3l-21.683-17.43v-16.327l25.7 20.655z" transform="translate(-215.193 -198.709)" style="fill:#ccbf88;fill-rule:evenodd"/>
                    <path data-name="Path 21849" d="m446.931 240.507-25.7 20.655v74.63l4.013-3.228v-58.3l21.683-17.43v-16.327z" transform="translate(-357.44 -198.709)" style="fill:#ccbf88;fill-rule:evenodd"/>
                </g>
                <g data-name="Group 1978">
                    <g data-name="Group 1976">
                        <path data-name="Path 21850" d="M93.38 814.846v.925a2.938 2.938 0 0 1-2.974 2.957h-.061a2.922 2.922 0 0 1-2.975-2.957v-.96h.969v.856a1.941 1.941 0 0 0 2.031 2.133 1.885 1.885 0 0 0 2.041-2.015h-2.283a2.6 2.6 0 0 1 2.914-2.836v.9c-1.038 0-1.487.259-1.8.994z" transform="translate(-81.256 -672.253)" style="fill:#278034"/>
                        <path data-name="Path 21851" d="M129.76 819.28h-1.548c-.147.925-.934 1.435-2.11 1.435v-.83a1.068 1.068 0 0 0 1.2-1.228v-3.3h.968v2.94h1.487z" transform="translate(-113.296 -674.241)" style="fill:#278034"/>
                        <path data-name="Path 21852" d="M147.329 833.356h-1.911v-.986h1.911z" transform="translate(-129.275 -688.317)" style="fill:#278034"/>
                        <path data-name="Path 21853" d="M161.089 807.688h-.96a3.328 3.328 0 0 1-1.928-.476 3.269 3.269 0 0 1-1.911.476h-1.064v-.988h1.012a2.045 2.045 0 0 0 .8-.095 2.06 2.06 0 0 1-.64-.8 2.165 2.165 0 0 1-.2-.9 1.6 1.6 0 0 1 .1-.6 2 2 0 0 1 1.9-1.332 1.921 1.921 0 0 1 2.015 1.894 2.118 2.118 0 0 1-.208.916 2.047 2.047 0 0 1-.631.813 1.985 1.985 0 0 0 .8.095h.9zm-3.242-5.378h-.951v-.969h.951zm.891 3.623a1.285 1.285 0 0 0 .571-1.107 1.1 1.1 0 1 0-2.2 0 1.305 1.305 0 0 0 .571 1.107 3.5 3.5 0 0 0 .536.32 3.7 3.7 0 0 0 .521-.321zm.752-3.623h-.951v-.969h.951z" transform="translate(-137.389 -662.648)" style="fill:#278034"/>
                        <path data-name="Path 21854" d="M189.775 809.807c0 1.046-.484 1.565-1.453 1.565H187.3v-.986h.822a.612.612 0 0 0 .614-.285 1.885 1.885 0 0 0 .069-.623v-3.683h.968z" transform="translate(-163.923 -666.333)" style="fill:#278034"/>
                        <path data-name="Path 21855" d="M207.98 811.331h-.96v-5.586h.96z" transform="translate(-180.234 -666.292)" style="fill:#278034"/>
                        <path data-name="Path 21856" d="M221.254 819.117c0 1.029-.623 1.548-1.876 1.548v-.77c.605-.017.908-.424.925-1.1a.962.962 0 0 1-.917.441 1.97 1.97 0 1 1 1.868-1.945zm-.994-1.807c0-.674-.363-1.124-.917-1.124-.51 0-.847.493-.847 1.081a.988.988 0 0 0 .891 1.1.96.96 0 0 0 .872-1.057z" transform="translate(-188.926 -674.199)" style="fill:#278034"/>
                        <path data-name="Path 21857" d="M258.8 809.354a2.981 2.981 0 0 1-.8 2.075 2.49 2.49 0 0 1-1.928.882 2.539 2.539 0 0 1-1.92-.847 2.938 2.938 0 0 1-.822-2.11v-2.4h.977v2.291a2.467 2.467 0 0 0 .432 1.453 1.619 1.619 0 0 0 2.655 0 2.461 2.461 0 0 0 .424-1.453v-2.295h.977zm-2.231-3.2h-.951v-.96h.951z" transform="translate(-218.551 -665.837)" style="fill:#278034"/>
                        <path data-name="Path 21858" d="M295.533 819.28h-5.612v-.986h3.13c0-1.132-.441-1.79-1.314-1.98a4.019 4.019 0 0 0-.873-.078v-.882c.476 0 .778.009.9.017a2.106 2.106 0 0 1 .519.121 2.622 2.622 0 0 1 1.747 2.8h1.5z" transform="translate(-248.813 -674.241)" style="fill:#278034"/>
                        <path data-name="Path 21859" d="M321.956 833.356h-1.911v-.986h1.911z" transform="translate(-273.732 -688.317)" style="fill:#278034"/>
                        <path data-name="Path 21860" d="M331.864 833.356h-1.911v-.986h1.911z" transform="translate(-281.929 -688.317)" style="fill:#278034"/>
                        <path data-name="Path 21861" d="M341.772 833.356h-1.911v-.986h1.911z" transform="translate(-290.125 -688.317)" style="fill:#278034"/>
                        <path data-name="Path 21862" d="M351.681 833.356h-1.911v-.986h1.911z" transform="translate(-298.322 -688.317)" style="fill:#278034"/>
                        <path data-name="Path 21863" d="M361.589 833.356h-1.911v-.986h1.911z" transform="translate(-306.518 -688.317)" style="fill:#278034"/>
                        <path data-name="Path 21864" d="M371.5 833.356h-1.911v-.986h1.911z" transform="translate(-314.714 -688.317)" style="fill:#278034"/>
                        <path data-name="Path 21865" d="M385.016 822.468h-1.236a1.832 1.832 0 0 1-1.565.752 1.811 1.811 0 0 1-1.548-.752h-1.323v-.986h.934c-.009-.095-.009-.19-.009-.285a1.986 1.986 0 0 1 .536-1.427 1.882 1.882 0 0 1 1.409-.562 1.8 1.8 0 0 1 1.4.579 2.057 2.057 0 0 1 .536 1.444v.251h.865zm-1.859-1.245a1.323 1.323 0 0 0-.233-.787.894.894 0 0 0-.735-.354.823.823 0 0 0-.7.346 1.259 1.259 0 0 0-.225.761 1.029 1.029 0 0 0 .977 1.133.826.826 0 0 0 .692-.329 1.268 1.268 0 0 0 .224-.77z" transform="translate(-322.786 -677.429)" style="fill:#278034"/>
                        <path data-name="Path 21866" d="M412.893 809.807c0 1.046-.484 1.565-1.453 1.565h-1.02v-.986h.821a.613.613 0 0 0 .614-.285 1.885 1.885 0 0 0 .069-.623v-3.683h.969z" transform="translate(-348.494 -666.333)" style="fill:#278034"/>
                        <path data-name="Path 21867" d="M431.1 811.331h-.96v-5.586h.96z" transform="translate(-364.803 -666.292)" style="fill:#278034"/>
                        <path data-name="Path 21868" d="M455.443 807.273H454.4a1.617 1.617 0 0 1-1.565-1.28 1.329 1.329 0 0 1-1.107.648 1.807 1.807 0 0 1-1.79-2.032c0-1.3.683-2.1 1.79-2.1h2.136v2.741c0 .675.32 1.038.969 1.038h.614zm-2.585-2.758v-1.254h-.874c-.674 0-1.089.536-1.089 1.34 0 .666.372 1.237.951 1.237.631 0 1.012-.588 1.012-1.323zm-.709-2.706h-.949v-.969h.951zm1.634 0h-.951v-.969h.951z" transform="translate(-381.182 -662.234)" style="fill:#278034"/>
                        <path data-name="Path 21869" d="M482.32 833.356h-1.911v-.986h1.911z" transform="translate(-406.391 -688.317)" style="fill:#278034"/>
                        <path data-name="Path 21870" d="M490.868 821.174h-.951v-.968h.951zm3.078-1.894h-3.986v-.986h.925a.6.6 0 0 0 .588-.294 1.519 1.519 0 0 0 .1-.657v-1.989h.96v1.937a1.582 1.582 0 0 1-.216 1h1.626zm-1.444 1.894h-.951v-.968h.951z" transform="translate(-414.256 -674.241)" style="fill:#278034"/>
                        <path data-name="Path 21871" d="M517.457 822.468h-1.236a1.832 1.832 0 0 1-1.565.752 1.81 1.81 0 0 1-1.548-.752h-1.323v-.986h.934c-.009-.095-.009-.19-.009-.285a1.987 1.987 0 0 1 .536-1.427 1.882 1.882 0 0 1 1.409-.562 1.8 1.8 0 0 1 1.4.579 2.057 2.057 0 0 1 .536 1.444v.251h.865zm-1.859-1.245a1.323 1.323 0 0 0-.234-.787.894.894 0 0 0-.735-.354.822.822 0 0 0-.7.346 1.259 1.259 0 0 0-.225.761 1.029 1.029 0 0 0 .977 1.133.826.826 0 0 0 .692-.329 1.268 1.268 0 0 0 .227-.77z" transform="translate(-432.346 -677.429)" style="fill:#278034"/>
                        <path data-name="Path 21872" d="M544.922 833.356h-1.911v-.986h1.911z" transform="translate(-458.177 -688.317)" style="fill:#278034"/>
                        <path data-name="Path 21873" d="M554.83 833.356h-1.911v-.986h1.911z" transform="translate(-466.373 -688.317)" style="fill:#278034"/>
                        <path data-name="Path 21874" d="M564.738 833.356h-1.911v-.986h1.911z" transform="translate(-474.57 -688.317)" style="fill:#278034"/>
                        <path data-name="Path 21875" d="M576.681 810.876h-3.995v-.986h.9a.587.587 0 0 0 .579-.294 1.515 1.515 0 0 0 .1-.657v-1.989h.96v1.937a1.655 1.655 0 0 1-.208 1h1.66zm-1.453-4.721h-.951v-.96h.951z" transform="translate(-482.725 -665.837)" style="fill:#278034"/>
                        <path data-name="Path 21876" d="M594.705 806.155h-.951v-.96h.951zm1.66 3.156c0 1.046-.484 1.565-1.444 1.565H593.9v-.986h.813a.612.612 0 0 0 .614-.285 1.884 1.884 0 0 0 .069-.623v-2.032h.968zm-.026-3.156h-.951v-.96h.951z" transform="translate(-500.153 -665.837)" style="fill:#278034"/>
                        <path data-name="Path 21877" d="M631.843 811.372h-5.983c-1.833 0-2.75-.813-2.75-2.447v-1.478h.96v1.478a1.336 1.336 0 0 0 .493 1.185 2.081 2.081 0 0 0 1.185.277h2.94a.58.58 0 0 0 .579-.294 1.516 1.516 0 0 0 .1-.657v-3.64h.968v3.589a1.583 1.583 0 0 1-.216 1h1.721zm-4-3.363h-2.153v-.579h.467a1.011 1.011 0 0 1-.1-.424.935.935 0 0 1 .934-.977.8.8 0 0 1 .8.519l-.406.277a.359.359 0 0 0-.363-.277q-.389 0-.389.493a.6.6 0 0 0 .121.389h1.089z" transform="translate(-524.438 -666.333)" style="fill:#278034"/>
                        <path data-name="Path 21878" d="M673.712 833.356H671.8v-.986h1.911z" transform="translate(-564.716 -688.317)" style="fill:#278034"/>
                        <path data-name="Path 21879" d="M673.712 833.356H671.8v-.986h1.911z" transform="translate(-564.716 -688.317)" style="fill:#278034"/>
                        <path data-name="Path 21880" d="M683.62 833.356h-1.911v-.986h1.911z" transform="translate(-572.913 -688.317)" style="fill:#278034"/>
                        <path data-name="Path 21881" d="M695.563 810.876h-3.995v-.986h.9a.587.587 0 0 0 .579-.294 1.517 1.517 0 0 0 .1-.657v-1.989h.96v1.937a1.655 1.655 0 0 1-.208 1h1.66zm-1.453-4.721h-.951v-.96h.951z" transform="translate(-581.068 -665.837)" style="fill:#278034"/>
                        <path data-name="Path 21882" d="M715.914 817.716c0 1.046-.484 1.565-1.444 1.565h-.934v-.986h.735a.613.613 0 0 0 .614-.285 1.888 1.888 0 0 0 .069-.623v-2.032h.96zm-.009 3.459h-.943v-.968h.943z" transform="translate(-599.241 -674.241)" style="fill:#278034"/>
                    </g>
                    <g data-name="Group 1977">
                        <path data-name="Path 21883" d="M90.752 861.28a1.676 1.676 0 0 1-.674-.7 2.458 2.458 0 0 1 0-2.1 1.658 1.658 0 0 1 .674-.7 2.075 2.075 0 0 1 1.029-.246 2.322 2.322 0 0 1 .74.117 1.52 1.52 0 0 1 .576.33l-.268.612a1.99 1.99 0 0 0-.511-.287 1.517 1.517 0 0 0-.521-.09.987.987 0 0 0-.8.333 1.48 1.48 0 0 0-.279.972 1.5 1.5 0 0 0 .279.98.983.983 0 0 0 .8.336 1.521 1.521 0 0 0 .521-.09 2 2 0 0 0 .511-.287l.268.611a1.516 1.516 0 0 1-.576.33 2.322 2.322 0 0 1-.74.117 2.055 2.055 0 0 1-1.029-.238z" transform="translate(-83.302 -709.14)" style="fill:#278034"/>
                        <path data-name="Path 21884" d="M112.157 857.827h.852v3.888h-.852z" transform="translate(-101.761 -709.376)" style="fill:#278034"/>
                        <path data-name="Path 21885" d="M120.96 858.521h-1.218v-.693h3.3v.693h-1.218v3.194h-.863z" transform="translate(-108.035 -709.376)" style="fill:#278034"/>
                        <path data-name="Path 21886" d="M141.455 857.827h.852v3.888h-.852z" transform="translate(-125.997 -709.376)" style="fill:#278034"/>
                        <path data-name="Path 21887" d="M150.9 857.827h2.681v.661h-1.851v.917h1.736v.666h-1.736v.983h1.851v.661H150.9z" transform="translate(-133.814 -709.376)" style="fill:#278034"/>
                        <path data-name="Path 21888" d="M169.246 861.411a1.929 1.929 0 0 1-.674-.33l.273-.611a2.143 2.143 0 0 0 1.256.393 1.136 1.136 0 0 0 .571-.118.366.366 0 0 0 .2-.33.326.326 0 0 0-.183-.292 2.4 2.4 0 0 0-.641-.2 3.375 3.375 0 0 1-.816-.254 1.079 1.079 0 0 1-.442-.366.971.971 0 0 1-.139-.538 1.073 1.073 0 0 1 .194-.628 1.274 1.274 0 0 1 .543-.434 1.97 1.97 0 0 1 .808-.156 2.647 2.647 0 0 1 .8.12 1.624 1.624 0 0 1 .612.328l-.273.612a1.817 1.817 0 0 0-1.13-.393.932.932 0 0 0-.524.131.406.406 0 0 0-.2.355.327.327 0 0 0 .074.218.611.611 0 0 0 .248.155 3.161 3.161 0 0 0 .5.134 2.715 2.715 0 0 1 1.078.426.864.864 0 0 1 .33.715 1.025 1.025 0 0 1-.426.865 1.939 1.939 0 0 1-1.185.319 3.045 3.045 0 0 1-.854-.121z" transform="translate(-148.429 -709.14)" style="fill:#278034"/>
                        <path data-name="Path 21889" d="M201.324 861.587a2.258 2.258 0 0 1-.841-.448 1.746 1.746 0 0 1-1.163.437 1.8 1.8 0 0 1-.723-.136 1.13 1.13 0 0 1-.489-.385.957.957 0 0 1-.175-.565 1.057 1.057 0 0 1 .186-.617 1.772 1.772 0 0 1 .584-.5 1.194 1.194 0 0 1-.377-.819.878.878 0 0 1 .142-.494.944.944 0 0 1 .4-.336 1.356 1.356 0 0 1 .587-.12 1.106 1.106 0 0 1 .743.237.794.794 0 0 1 .279.636.925.925 0 0 1-.169.546 1.625 1.625 0 0 1-.53.448l.672.661a2.66 2.66 0 0 0 .24-.978h.683a2.986 2.986 0 0 1-.431 1.458 1.93 1.93 0 0 0 .781.4zm-2.424-.775a.67.67 0 0 0 .442.136 1.036 1.036 0 0 0 .682-.262l-.9-.884a.94.94 0 0 0-.3.286.662.662 0 0 0-.1.352.458.458 0 0 0 .176.372zm.273-2.547a.381.381 0 0 0-.109.287.435.435 0 0 0 .063.219 1.7 1.7 0 0 0 .227.284 1.268 1.268 0 0 0 .358-.262.419.419 0 0 0 .106-.278.344.344 0 0 0-.1-.259.353.353 0 0 0-.257-.1.4.4 0 0 0-.288.109z" transform="translate(-172.718 -709.194)" style="fill:#278034"/>
                        <path data-name="Path 21890" d="m231.566 857.827-1.747 3.888h-.683l-1.747-3.888h.885l1.212 2.823 1.223-2.823z" transform="translate(-197.085 -709.376)" style="fill:#278034"/>
                        <path data-name="Path 21891" d="M253.338 857.827h.852v3.888h-.852z" transform="translate(-218.55 -709.376)" style="fill:#278034"/>
                        <path data-name="Path 21892" d="M262.788 857.827h.852v3.194h1.736v.693h-2.588z" transform="translate(-226.368 -709.376)" style="fill:#278034"/>
                        <path data-name="Path 21893" d="M280.771 857.827h.852v3.194h1.736v.693h-2.588z" transform="translate(-241.244 -709.376)" style="fill:#278034"/>
                        <path data-name="Path 21894" d="M299.178 860.852h-1.818l-.371.863h-.857l1.786-3.888h.688l1.786 3.888h-.841zm-.279-.65-.628-1.458-.628 1.458z" transform="translate(-253.95 -709.376)" style="fill:#278034"/>
                        <path data-name="Path 21895" d="M324.867 859.333v1.906a2.81 2.81 0 0 1-.664.213 3.929 3.929 0 0 1-.778.076 2.252 2.252 0 0 1-1.07-.24 1.657 1.657 0 0 1-.7-.688 2.212 2.212 0 0 1-.243-1.07 2.176 2.176 0 0 1 .243-1.054 1.689 1.689 0 0 1 .688-.691 2.139 2.139 0 0 1 1.04-.243 2.593 2.593 0 0 1 .784.115 1.634 1.634 0 0 1 .6.322l-.273.611a2.043 2.043 0 0 0-.53-.284 1.713 1.713 0 0 0-.557-.087q-1.125 0-1.125 1.31 0 1.338 1.174 1.338a2.615 2.615 0 0 0 .644-.082v-.857h-.765v-.6z" transform="translate(-274.867 -709.14)" style="fill:#278034"/>
                        <path data-name="Path 21896" d="M345.626 857.827h2.681v.661h-1.851v.917h1.737v.666h-1.737v.983h1.851v.661h-2.681z" transform="translate(-294.894 -709.376)" style="fill:#278034"/>
                        <path data-name="Path 21897" d="M363.967 861.411a1.929 1.929 0 0 1-.674-.33l.273-.611a2.143 2.143 0 0 0 1.256.393 1.135 1.135 0 0 0 .57-.118.366.366 0 0 0 .2-.33.326.326 0 0 0-.183-.292 2.406 2.406 0 0 0-.642-.2 3.376 3.376 0 0 1-.816-.254 1.078 1.078 0 0 1-.442-.366.971.971 0 0 1-.139-.538 1.072 1.072 0 0 1 .194-.628 1.273 1.273 0 0 1 .543-.434 1.97 1.97 0 0 1 .808-.156 2.647 2.647 0 0 1 .8.12 1.626 1.626 0 0 1 .612.328l-.273.612a1.817 1.817 0 0 0-1.13-.393.933.933 0 0 0-.524.131.407.407 0 0 0-.2.355.328.328 0 0 0 .074.218.614.614 0 0 0 .248.155 3.167 3.167 0 0 0 .5.134 2.714 2.714 0 0 1 1.079.426.864.864 0 0 1 .33.715 1.025 1.025 0 0 1-.426.865 1.938 1.938 0 0 1-1.185.319 3.046 3.046 0 0 1-.853-.121z" transform="translate(-309.509 -709.14)" style="fill:#278034"/>
                        <path data-name="Path 21898" d="M393.887 857.827h1.5a2.43 2.43 0 0 1 1.1.229 1.6 1.6 0 0 1 .7.666 2.114 2.114 0 0 1 .243 1.043 2.144 2.144 0 0 1-.24 1.048 1.6 1.6 0 0 1-.7.669 2.421 2.421 0 0 1-1.1.232h-1.5zm1.447 3.2a1.256 1.256 0 0 0 0-2.512h-.6v2.512z" transform="translate(-334.817 -709.376)" style="fill:#278034"/>
                        <path data-name="Path 21899" d="M418.255 857.827h2.681v.661h-1.851v.917h1.736v.666h-1.736v.983h1.851v.661h-2.681z" transform="translate(-354.975 -709.376)" style="fill:#278034"/>
                        <path data-name="Path 21900" d="m438.772 857.827-1.747 3.888h-.683l-1.747-3.888h.885l1.212 2.823 1.223-2.823z" transform="translate(-368.492 -709.376)" style="fill:#278034"/>
                        <path data-name="Path 21901" d="M460.543 857.827h2.681v.661h-1.851v.917h1.736v.666h-1.736v.983h1.851v.661h-2.681z" transform="translate(-389.957 -709.376)" style="fill:#278034"/>
                        <path data-name="Path 21902" d="M479.475 857.827h.852v3.194h1.736v.693h-2.588z" transform="translate(-405.618 -709.376)" style="fill:#278034"/>
                        <path data-name="Path 21903" d="M496.423 861.285a1.637 1.637 0 0 1-.661-.7 2.294 2.294 0 0 1-.232-1.059 2.26 2.26 0 0 1 .232-1.054 1.648 1.648 0 0 1 .661-.691 2.205 2.205 0 0 1 2.012 0 1.638 1.638 0 0 1 .655.691 2.283 2.283 0 0 1 .229 1.054 2.317 2.317 0 0 1-.229 1.059 1.627 1.627 0 0 1-.655.7 2.205 2.205 0 0 1-2.012 0zm1.775-.767a1.549 1.549 0 0 0 .276-.988 1.525 1.525 0 0 0-.276-.983 1.038 1.038 0 0 0-1.534 0 1.524 1.524 0 0 0-.276.983 1.545 1.545 0 0 0 .276.991 1.03 1.03 0 0 0 1.534 0z" transform="translate(-418.9 -709.14)" style="fill:#278034"/>
                        <path data-name="Path 21904" d="M521.32 857.827h1.764a1.478 1.478 0 0 1 1 .311 1.174 1.174 0 0 1 0 1.69 1.471 1.471 0 0 1-1 .314h-.912v1.573h-.852zm1.655 1.665q.666 0 .666-.5t-.666-.508h-.8v1.01z" transform="translate(-440.234 -709.376)" style="fill:#278034"/>
                        <path data-name="Path 21905" d="M546.567 857.827v3.888h-.753v-2.124l-.9 2.124h-.551l-.9-2.1v2.1h-.748v-3.888h.677l1.256 2.867 1.245-2.867z" transform="translate(-457.935 -709.376)" style="fill:#278034"/>
                        <path data-name="Path 21906" d="M569.55 857.827h2.681v.661h-1.851v.917h1.736v.666h-1.736v.983h1.851v.661h-2.681z" transform="translate(-480.131 -709.376)" style="fill:#278034"/>
                        <path data-name="Path 21907" d="M591.851 857.827v3.888h-.633l-1.938-2.479v2.479h-.8v-3.888h.628l1.938 2.474v-2.474z" transform="translate(-495.792 -709.376)" style="fill:#278034"/>
                        <path data-name="Path 21908" d="M611.855 858.521h-1.218v-.693h3.3v.693h-1.218v3.194h-.863z" transform="translate(-514.12 -709.376)" style="fill:#278034"/>
                        <path data-name="Path 21909" d="M644.251 860.05a.968.968 0 0 1 .186.6.936.936 0 0 1-.366.778 1.571 1.571 0 0 1-.994.287h-1.846v-3.888h1.791a1.538 1.538 0 0 1 .958.27.882.882 0 0 1 .352.74.891.891 0 0 1-.606.868.973.973 0 0 1 .525.345zm-2.19-.639h.819a.862.862 0 0 0 .489-.112.393.393 0 0 0 .161-.347.406.406 0 0 0-.161-.355.846.846 0 0 0-.489-.115h-.819zm1.417 1.532a.438.438 0 0 0 .156-.374.452.452 0 0 0-.156-.382.823.823 0 0 0-.5-.12h-.917v.994h.917a.838.838 0 0 0 .501-.119z" transform="translate(-539.429 -709.376)" style="fill:#278034"/>
                        <path data-name="Path 21910" d="M663.653 860.852h-1.818l-.371.863h-.857l1.786-3.888h.688l1.786 3.888h-.841zm-.278-.65-.628-1.458-.628 1.458z" transform="translate(-555.456 -709.376)" style="fill:#278034"/>
                        <path data-name="Path 21911" d="M690.555 857.827v3.888h-.633l-1.938-2.479v2.479h-.8v-3.888h.628l1.938 2.474v-2.474z" transform="translate(-577.444 -709.376)" style="fill:#278034"/>
                        <path data-name="Path 21912" d="m713.75 861.715-1.693-1.8v1.8h-.852v-3.888h.852v1.709l1.632-1.709h1.016l-1.807 1.857 1.878 2.031z" transform="translate(-597.314 -709.376)" style="fill:#278034"/>
                    </g>
                </g>
            </g>
            <path data-name="Path 21913" d="m367.558 373.634-4.061 3.753.4-5.515-5.466-.835 4.569-3.124-2.755-4.794 5.287 1.619 2.031-5.144 2.031 5.144 5.287-1.619-2.755 4.794 4.563 3.124-5.466.835.4 5.515z" transform="translate(-305.488 -297.358)" style="fill:#fff;stroke:#707070;stroke-miterlimit:10;fill-rule:evenodd"/>
        </g>
    </g>
</svg>
